<svg width="25" height="24" viewBox="0 0 25 24" fill="none" xmlns="http://www.w3.org/2000/svg">
<path d="M11.3 22C7.27 22 5.254 22 4.002 20.646C2.75 19.293 2.75 17.114 2.75 12.756V12.243C2.75 7.886 2.75 5.707 4.002 4.353C5.254 3 7.27 3 11.3 3H13.2C17.23 3 19.246 3 20.498 4.354C21.677 5.628 21.746 7.634 21.75 11.5V13M21.25 18.5H13.25M21.25 18.5C21.25 19.2 19.256 20.509 18.75 21M21.25 18.5C21.25 17.8 19.256 16.491 18.75 16M18.25 2V4M6.25 2V4M3.25 8H21.25" stroke="#7E0140" stroke-width="1.5" stroke-linecap="round" stroke-linejoin="round"/>
</svg>
