<svg width="25" height="24" viewBox="0 0 25 24" fill="none" xmlns="http://www.w3.org/2000/svg">
<path d="M19.75 3H4.75C3.92157 3 3.25 3.67157 3.25 4.5V19.5C3.25 20.3284 3.92157 21 4.75 21H19.75C20.5784 21 21.25 20.3284 21.25 19.5V4.5C21.25 3.67157 20.5784 3 19.75 3Z" stroke="#7E0140" stroke-width="2"/>
<path d="M17.75 6H15.457C15.012 6 14.7885 6.5385 15.1035 6.8535L17.3965 9.1465C17.7115 9.4615 18.25 9.2385 18.25 8.793V6.5C18.25 6.36739 18.1973 6.24021 18.1036 6.14645C18.0098 6.05268 17.8826 6 17.75 6ZM6.25 6.5V8.793C6.25 9.238 6.7885 9.4615 7.1035 9.1465L9.3965 6.8535C9.7115 6.5385 9.4885 6 9.043 6H6.75C6.61739 6 6.49021 6.05268 6.39645 6.14645C6.30268 6.24021 6.25 6.36739 6.25 6.5ZM6.75 18H9.043C9.488 18 9.7115 17.4615 9.3965 17.1465L7.1035 14.8535C6.7885 14.5385 6.25 14.7615 6.25 15.207V17.5C6.25 17.6326 6.30268 17.7598 6.39645 17.8536C6.49021 17.9473 6.61739 18 6.75 18ZM18.25 17.5V15.207C18.25 14.762 17.7115 14.5385 17.3965 14.8535L15.1035 17.1465C14.7885 17.4615 15.0115 18 15.457 18H17.75C17.8826 18 18.0098 17.9473 18.1036 17.8536C18.1973 17.7598 18.25 17.6326 18.25 17.5Z" fill="#7E0140"/>
</svg>
