<svg width="24" height="24" viewBox="0 0 24 24" fill="none" xmlns="http://www.w3.org/2000/svg">
<path d="M17.385 21C16.2703 21 15.325 20.612 14.549 19.836C13.773 19.0587 13.385 18.1133 13.385 17C13.385 15.8867 13.773 14.9417 14.549 14.165C15.325 13.3883 16.27 13 17.384 13C18.4987 13 19.444 13.3883 20.22 14.165C20.9967 14.941 21.385 15.886 21.385 17C21.385 18.114 20.9967 19.0593 20.22 19.836C19.4433 20.6127 18.4983 21.0007 17.385 21ZM19.04 19.202L19.586 18.656L17.769 16.838V14.116H17V17.162L19.04 19.202ZM5.615 20C5.16833 20 4.78733 19.8427 4.472 19.528C4.15733 19.2133 4 18.8323 4 18.385V5.61499C4 5.16832 4.15733 4.78732 4.472 4.47199C4.78667 4.15732 5.168 3.99999 5.616 3.99999H10.252C10.3453 3.60932 10.553 3.28099 10.875 3.01499C11.197 2.74832 11.572 2.61499 12 2.61499C12.436 2.61499 12.814 2.74832 13.134 3.01499C13.454 3.28032 13.6607 3.60866 13.754 3.99999H18.384C18.832 3.99999 19.2133 4.15732 19.528 4.47199C19.8427 4.78666 20 5.16799 20 5.61599V11.635C19.828 11.5463 19.6653 11.4687 19.512 11.402C19.3587 11.3353 19.188 11.2757 19 11.223V5.61499C19 5.46166 18.936 5.32066 18.808 5.19199C18.68 5.06332 18.5387 4.99932 18.384 4.99999H16V7.22999H8V4.99999H5.616C5.462 4.99999 5.32067 5.06399 5.192 5.19199C5.06333 5.31999 4.99933 5.46132 5 5.61599V18.385C5 18.5643 5.05767 18.7117 5.173 18.827C5.28833 18.9423 5.436 19 5.616 19H11.742C11.7953 19.1867 11.8583 19.3603 11.931 19.521C12.0043 19.681 12.0977 19.8407 12.211 20H5.615ZM12 5.22999C12.232 5.22999 12.4247 5.15366 12.578 5.00099C12.7313 4.84766 12.808 4.65499 12.808 4.42299C12.808 4.19099 12.7313 3.99832 12.578 3.84499C12.4247 3.69166 12.232 3.61499 12 3.61499C11.768 3.61499 11.5753 3.69166 11.422 3.84499C11.2687 3.99832 11.192 4.19099 11.192 4.42299C11.192 4.65499 11.2687 4.84766 11.422 5.00099C11.5753 5.15432 11.768 5.22999 12 5.22999Z" fill="#7E0140"/>
</svg>
